<svg version="1.1" id="Layer_1" xmlns="http://www.w3.org/2000/svg" xmlns:xlink="http://www.w3.org/1999/xlink" x="0px" y="0px"
	 width="100%" viewBox="0 0 512 512" enable-background="new 0 0 512 512" xml:space="preserve">
<path fill="#000000" opacity="1.000000" stroke="none" 
	d="
M513.000000,204.000000 
	C513.000000,307.308228 513.000000,410.116455 513.000000,512.962341 
	C342.400085,512.962341 171.800186,512.962341 1.100134,512.962341 
	C1.100134,342.441803 1.100134,171.883514 1.100134,1.162619 
	C171.666534,1.162619 342.333252,1.162619 513.000000,1.162619 
	C513.000000,68.533112 513.000000,136.016556 513.000000,204.000000 
M458.029297,261.001648 
	C458.029297,261.001648 458.107880,260.989563 457.992432,260.138916 
	C457.661957,258.073639 457.044830,256.008636 457.042847,253.943024 
	C456.990234,199.017044 457.001038,144.091003 457.929199,89.027565 
	C463.593628,89.018356 469.258240,89.032349 474.922485,88.994270 
	C482.611908,88.942566 488.968445,82.592537 488.990875,74.888206 
	C489.025330,63.059376 489.017639,51.230347 488.993835,39.401466 
	C488.977509,31.287720 482.766205,25.007891 474.703979,25.007336 
	C329.591400,24.997349 184.478790,24.997610 39.366196,25.006388 
	C31.265167,25.006878 25.024759,31.247099 25.006685,39.330849 
	C24.980612,50.993111 25.472363,62.681866 24.822824,74.307892 
	C24.433430,81.277664 32.710674,89.838913 39.529724,89.133957 
	C45.290169,88.538445 51.171257,89.109962 56.998890,90.080322 
	C56.998901,144.656326 57.013039,199.232346 56.951675,253.808289 
	C56.948982,256.203094 56.255276,258.597107 55.957397,261.007721 
	C55.957397,261.007721 55.963116,260.932251 55.311810,261.164032 
	C53.267548,264.800171 51.223286,268.436310 49.067089,272.519714 
	C49.067089,272.519714 49.172546,272.968597 49.033726,273.873383 
	C48.584332,283.628937 51.010826,292.508881 57.032146,301.182739 
	C57.021347,347.733002 57.010544,394.283234 56.071701,440.972168 
	C50.407375,440.981415 44.742878,440.966095 39.078766,441.005951 
	C31.380653,441.060150 25.049486,447.403320 25.007341,455.118164 
	C24.971849,461.615448 25.488930,468.160431 24.865088,474.597443 
	C24.217655,481.277832 32.788101,489.165192 39.308636,489.156036 
	C184.418549,488.952240 329.528778,489.002258 474.638977,488.993958 
	C482.723816,488.993469 488.964783,482.741180 488.995117,474.672302 
	C489.018921,468.341522 489.011230,462.010559 488.997223,455.679718 
	C488.978516,447.210571 482.868561,441.050781 474.482880,440.996582 
	C468.655212,440.958923 462.827789,440.889008 457.000275,439.918335 
	C456.964539,393.393677 456.928802,346.869019 457.500122,299.912476 
	C462.618378,291.658112 466.024353,282.938049 464.935333,272.505188 
	C464.935333,272.505188 464.825531,272.044678 464.969696,271.286804 
	C462.655334,267.831940 460.340973,264.377075 458.029297,261.001648 
z"/>
<path fill="#E67500" opacity="1.000000" stroke="none" 
	d="
M56.998951,89.164963 
	C51.171257,89.109962 45.290169,88.538445 39.529724,89.133957 
	C32.710674,89.838913 24.433430,81.277664 24.822824,74.307892 
	C25.472363,62.681866 24.980612,50.993111 25.006685,39.330849 
	C25.024759,31.247099 31.265167,25.006878 39.366196,25.006388 
	C184.478790,24.997610 329.591400,24.997349 474.703979,25.007336 
	C482.766205,25.007891 488.977509,31.287720 488.993835,39.401466 
	C489.017639,51.230347 489.025330,63.059376 488.990875,74.888206 
	C488.968445,82.592537 482.611908,88.942566 474.922485,88.994270 
	C469.258240,89.032349 463.593628,89.018356 457.000977,89.025505 
	C324.043488,89.015030 192.014160,89.006248 59.984852,89.005096 
	C58.989552,89.005089 57.994251,89.109367 56.998951,89.164963 
z"/>
<path fill="#E67500" opacity="1.000000" stroke="none" 
	d="
M457.000244,440.833496 
	C462.827789,440.889008 468.655212,440.958923 474.482880,440.996582 
	C482.868561,441.050781 488.978516,447.210571 488.997223,455.679718 
	C489.011230,462.010559 489.018921,468.341522 488.995117,474.672302 
	C488.964783,482.741180 482.723816,488.993469 474.638977,488.993958 
	C329.528778,489.002258 184.418549,488.952240 39.308636,489.156036 
	C32.788101,489.165192 24.217655,481.277832 24.865088,474.597443 
	C25.488930,468.160431 24.971849,461.615448 25.007341,455.118164 
	C25.049486,447.403320 31.380653,441.060150 39.078766,441.005951 
	C44.742878,440.966095 50.407375,440.981415 56.999825,440.973480 
	C68.559662,440.983276 79.191414,441.011688 89.823090,440.996582 
	C121.548759,440.951508 153.274414,440.889374 185.462128,440.906616 
	C190.948608,440.930939 195.973022,440.882568 201.461395,440.905823 
	C238.951096,440.929718 275.976837,440.881958 313.464539,440.906738 
	C318.950958,440.930847 323.975433,440.882385 329.463867,440.904358 
	C340.891846,440.983276 351.855865,441.012024 362.819824,440.996429 
	C394.213287,440.951752 425.606781,440.889099 457.000244,440.833496 
z"/>
<path fill="#B8E0F7" opacity="1.000000" stroke="none" 
	d="
M56.998920,89.622643 
	C57.994251,89.109367 58.989552,89.005089 59.984852,89.005096 
	C192.014160,89.006248 324.043488,89.015030 456.536926,89.094208 
	C457.001038,144.091003 456.990234,199.017044 457.042847,253.943024 
	C457.044830,256.008636 457.661957,258.073639 457.771484,260.856659 
	C456.433960,260.133362 455.242249,258.743896 454.212280,257.243439 
	C443.188080,241.183456 432.117706,225.154343 421.222229,209.007309 
	C417.338776,203.251999 412.266785,200.477066 405.302917,200.535095 
	C387.977295,200.679443 370.649902,200.609467 353.109436,200.462830 
	C352.377380,200.377777 351.859161,200.455414 350.946716,200.418991 
	C348.617249,200.369446 346.682037,200.433945 344.298279,200.489243 
	C328.258881,200.567078 312.667999,200.654144 296.726318,200.542175 
	C274.492035,200.419922 252.608429,200.490433 230.724915,200.578888 
	C226.454773,200.596146 222.184937,200.683105 217.453796,200.675781 
	C201.384216,200.605942 185.775803,200.598236 169.758606,200.454926 
	C167.117233,200.387939 164.884613,200.456589 162.412079,200.386856 
	C161.669571,200.375641 161.167007,200.502808 160.218048,200.598053 
	C143.640381,200.568665 127.504677,200.797333 111.379715,200.479980 
	C103.104279,200.317123 97.248260,203.226349 92.584282,210.192078 
	C81.767754,226.346802 70.475571,242.183731 59.300583,258.096375 
	C58.470493,259.278381 57.036633,260.036377 55.883453,260.991486 
	C56.255276,258.597107 56.948982,256.203094 56.951675,253.808289 
	C57.013039,199.232346 56.998901,144.656326 56.998920,89.622643 
M424.997742,138.500168 
	C424.997467,133.167175 425.025116,127.834015 424.991150,122.501236 
	C424.921570,111.581451 418.470337,105.018387 407.613922,105.016037 
	C307.122070,104.994240 206.630203,104.992126 106.138344,105.019829 
	C95.542328,105.022751 89.056267,111.594643 89.017395,122.242409 
	C88.962029,137.407639 88.962471,152.573395 89.017281,167.738632 
	C89.055557,178.326263 95.606689,184.976898 106.128601,184.979813 
	C206.787109,185.007767 307.445618,185.010056 408.104126,184.975372 
	C418.297516,184.971863 424.903595,178.241898 424.981079,167.997635 
	C425.052917,158.498947 424.997253,148.999298 424.997742,138.500168 
z"/>
<path fill="#B8E0F8" opacity="1.000000" stroke="none" 
	d="
M185.000061,440.833923 
	C153.274414,440.889374 121.548759,440.951508 89.823090,440.996582 
	C79.191414,441.011688 68.559662,440.983276 57.463844,440.904144 
	C57.010544,394.283234 57.021347,347.733002 57.354675,300.836761 
	C65.469498,311.331482 76.043907,317.796387 89.030785,320.943970 
	C89.007835,339.420685 88.967789,357.390900 89.012802,375.360870 
	C89.040565,386.443359 95.625656,392.956146 106.796303,392.989807 
	C121.438492,393.033905 136.080933,393.020813 150.723206,392.994537 
	C162.600082,392.973206 168.966568,386.652161 168.994400,374.846375 
	C169.037155,356.710236 169.037811,338.574005 169.521439,320.442383 
	C174.972931,320.442902 179.959320,320.438873 184.968079,320.938538 
	C184.993637,361.239441 184.996857,401.036682 185.000061,440.833923 
z"/>
<path fill="#B8E0F8" opacity="1.000000" stroke="none" 
	d="
M457.000244,440.375916 
	C425.606781,440.889099 394.213287,440.951752 362.819824,440.996429 
	C351.855865,441.012024 340.891846,440.983276 329.463928,440.446381 
	C329.018372,400.091370 329.036713,360.264801 329.522827,320.443634 
	C334.975220,320.444214 339.959808,320.439362 344.966187,320.941284 
	C344.991791,339.416290 344.962830,357.384644 345.011810,375.352783 
	C345.041382,386.209351 351.602325,392.929413 362.286255,392.981201 
	C377.425812,393.054565 392.566284,393.053619 407.705872,392.981415 
	C418.271759,392.931030 424.937134,386.356873 424.975494,375.863037 
	C425.042969,357.396271 424.962738,338.928986 425.273804,320.319153 
	C438.804047,317.937408 448.748322,310.560486 456.893066,300.344360 
	C456.928802,346.869019 456.964539,393.393677 457.000244,440.375916 
z"/>
<path fill="#E67500" opacity="1.000000" stroke="none" 
	d="
M55.920425,260.999603 
	C57.036633,260.036377 58.470493,259.278381 59.300583,258.096375 
	C70.475571,242.183731 81.767754,226.346802 92.584282,210.192078 
	C97.248260,203.226349 103.104279,200.317123 111.379715,200.479980 
	C127.504677,200.797333 143.640381,200.568665 160.716522,200.620941 
	C161.991592,200.625595 162.321808,200.575409 162.652008,200.525238 
	C164.884613,200.456589 167.117233,200.387939 169.708008,200.869110 
	C161.692383,225.291672 153.318573,249.164413 144.479645,273.028320 
	C112.400536,273.002502 80.786537,272.985565 49.172546,272.968597 
	C49.172546,272.968597 49.067089,272.519714 49.413383,272.132935 
	C51.827492,268.141510 53.895302,264.536896 55.963112,260.932251 
	C55.963116,260.932251 55.957397,261.007721 55.920425,260.999603 
z"/>
<path fill="#E67500" opacity="1.000000" stroke="none" 
	d="
M353.323212,200.625534 
	C370.649902,200.609467 387.977295,200.679443 405.302917,200.535095 
	C412.266785,200.477066 417.338776,203.251999 421.222229,209.007309 
	C432.117706,225.154343 443.188080,241.183456 454.212280,257.243439 
	C455.242249,258.743896 456.433960,260.133362 457.829224,261.281982 
	C458.107880,260.989563 458.029297,261.001648 457.698853,261.209869 
	C459.854126,264.960297 462.339813,268.502502 464.825531,272.044678 
	C464.825531,272.044678 464.935333,272.505188 464.424561,272.743286 
	C432.295349,273.000275 400.676849,273.019165 368.907654,272.698425 
	C363.366638,256.636536 357.915314,240.934769 352.611084,225.183472 
	C349.855469,217.000336 347.359863,208.729614 344.746765,200.498459 
	C346.682037,200.433945 348.617249,200.369446 351.441071,200.491379 
	C352.660828,200.660400 352.992004,200.642975 353.323212,200.625534 
z"/>
<path fill="#C06101" opacity="1.000000" stroke="none" 
	d="
M369.058380,273.038086 
	C400.676849,273.019165 432.295349,273.000275 464.371277,272.973938 
	C466.024353,282.938049 462.618378,291.658112 457.196594,300.128418 
	C448.748322,310.560486 438.804047,317.937408 424.806610,320.319092 
	C418.974091,320.439087 413.938202,320.416382 408.574890,320.280090 
	C396.653625,318.049591 387.270782,312.221313 379.691162,303.286316 
	C378.697479,302.114929 377.315430,301.272980 376.130707,299.881287 
	C372.674744,290.931915 368.562164,282.553375 368.966553,272.979889 
	C368.993164,273.004974 369.058380,273.038086 369.058380,273.038086 
z"/>
<path fill="#C06101" opacity="1.000000" stroke="none" 
	d="
M49.103134,273.420990 
	C80.786537,272.985565 112.400536,273.002502 144.512436,273.011444 
	C145.010345,273.003418 145.063507,272.953186 145.040497,273.389771 
	C143.244019,280.788208 141.496552,287.756836 139.679962,294.707397 
	C139.188873,296.586426 138.488510,298.410736 137.553833,300.270081 
	C136.419189,301.064758 135.526520,301.777954 134.824219,302.645294 
	C127.083344,312.204987 117.198151,318.153259 104.621872,320.406067 
	C99.114311,320.418549 94.081955,320.427917 89.049599,320.437317 
	C76.043907,317.796387 65.469498,311.331482 57.375660,300.386169 
	C51.010826,292.508881 48.584332,283.628937 49.103134,273.420990 
z"/>
<path fill="#B8E0F7" opacity="1.000000" stroke="none" 
	d="
M55.637459,261.048157 
	C53.895302,264.536896 51.827492,268.141510 49.469353,271.909302 
	C51.223286,268.436310 53.267548,264.800171 55.637459,261.048157 
z"/>
<path fill="#B8E0F7" opacity="1.000000" stroke="none" 
	d="
M464.897614,271.665741 
	C462.339813,268.502502 459.854126,264.960297 457.697510,261.170166 
	C460.340973,264.377075 462.655334,267.831940 464.897614,271.665741 
z"/>
<path fill="#49BBEE" opacity="1.000000" stroke="none" 
	d="
M313.002563,440.834198 
	C275.976837,440.881958 238.951096,440.929718 201.461914,440.447784 
	C200.987183,398.240295 200.975906,356.562500 201.143982,314.602356 
	C206.333679,309.567322 211.344009,304.814636 216.658417,300.141998 
	C217.439240,300.641418 217.990524,301.001007 218.382080,301.488770 
	C239.139481,327.346344 274.108124,327.653503 295.091064,302.177612 
	C295.783478,301.336914 296.792297,300.756836 297.789764,300.377380 
	C302.964355,305.420288 308.002838,310.141083 313.029388,315.339050 
	C313.012512,357.488892 313.007538,399.161530 313.002563,440.834198 
z"/>
<path fill="#0082D1" opacity="1.000000" stroke="none" 
	d="
M200.964630,314.884705 
	C200.975906,356.562500 200.987183,398.240295 200.997955,440.376160 
	C195.973022,440.882568 190.948608,440.930939 185.462128,440.906616 
	C184.996857,401.036682 184.993637,361.239441 185.293533,320.795868 
	C190.719299,318.394592 195.841965,316.639648 200.964630,314.884705 
z"/>
<path fill="#0082D1" opacity="1.000000" stroke="none" 
	d="
M313.464539,440.906738 
	C313.007538,399.161530 313.012512,357.488892 313.388733,315.408081 
	C318.858307,316.812683 323.956665,318.625458 329.055023,320.438202 
	C329.036713,360.264801 329.018372,400.091370 328.999969,440.375916 
	C323.975433,440.882385 318.950958,440.930847 313.464539,440.906738 
z"/>
<path fill="#FFA91F" opacity="1.000000" stroke="none" 
	d="
M424.997742,139.000122 
	C424.997253,148.999298 425.052917,158.498947 424.981079,167.997635 
	C424.903595,178.241898 418.297516,184.971863 408.104126,184.975372 
	C307.445618,185.010056 206.787109,185.007767 106.128601,184.979813 
	C95.606689,184.976898 89.055557,178.326263 89.017281,167.738632 
	C88.962471,152.573395 88.962029,137.407639 89.017395,122.242409 
	C89.056267,111.594643 95.542328,105.022751 106.138344,105.019829 
	C206.630203,104.992126 307.122070,104.994240 407.613922,105.016037 
	C418.470337,105.018387 424.921570,111.581451 424.991150,122.501236 
	C425.025116,127.834015 424.997467,133.167175 424.997742,139.000122 
M233.500000,137.000000 
	C222.340775,137.000000 211.181549,136.997772 200.022324,137.000778 
	C192.360840,137.002838 184.696182,136.881195 177.039001,137.065720 
	C172.190140,137.182571 169.091415,140.449188 169.038040,144.904922 
	C168.984619,149.365585 172.062286,152.562881 176.850922,152.958664 
	C178.009552,153.054428 179.181396,152.998734 180.347153,152.998764 
	C247.468796,153.000092 314.590454,153.000076 381.712097,152.998581 
	C382.877808,152.998550 384.050140,153.054794 385.208099,152.954697 
	C389.970917,152.543030 393.046356,149.299652 392.961792,144.842926 
	C392.880890,140.579178 389.916992,137.475800 385.396057,137.062927 
	C383.743286,136.911972 382.067444,137.001785 380.402130,137.001709 
	C331.768097,136.999588 283.134033,137.000000 233.500000,137.000000 
M121.037117,145.395813 
	C121.678993,150.579254 124.762436,152.960510 129.832535,152.988297 
	C134.826752,153.015656 139.825714,153.117813 144.814392,152.947296 
	C149.694748,152.780502 152.829529,149.665100 152.962631,145.244156 
	C153.101990,140.615204 149.878265,137.227203 144.806778,137.051773 
	C139.818253,136.879181 134.819183,136.984818 129.824951,137.011307 
	C124.750275,137.038208 121.676414,139.428970 121.037117,145.395813 
z"/>
<path fill="#E67500" opacity="1.000000" stroke="none" 
	d="
M217.914948,200.737900 
	C222.184937,200.683105 226.454773,200.596146 230.724915,200.578888 
	C252.608429,200.490433 274.492035,200.419922 296.723022,200.983276 
	C299.770111,225.416718 302.469727,249.210022 305.088989,273.009277 
	C305.008636,273.015259 304.847473,273.013824 304.392822,273.010559 
	C272.342743,273.009369 240.747314,273.011414 209.071411,273.014282 
	C208.990921,273.015106 208.830368,273.003326 208.886154,272.583679 
	C211.932938,248.355347 214.923950,224.546616 217.914948,200.737900 
z"/>
<path fill="#FEA920" opacity="1.000000" stroke="none" 
	d="
M217.453796,200.675781 
	C214.923950,224.546616 211.932938,248.355347 208.434235,272.581482 
	C186.972198,272.983673 166.017853,272.968414 145.063507,272.953186 
	C145.063507,272.953186 145.010345,273.003418 144.977554,273.020294 
	C153.318573,249.164413 161.692383,225.291672 170.116791,201.004730 
	C185.775803,200.598236 201.384216,200.605942 217.453796,200.675781 
z"/>
<path fill="#FEA920" opacity="1.000000" stroke="none" 
	d="
M305.169373,273.003326 
	C302.469727,249.210022 299.770111,225.416718 297.073792,201.182312 
	C312.667999,200.654144 328.258881,200.567078 344.298279,200.489243 
	C347.359863,208.729614 349.855469,217.000336 352.611084,225.183472 
	C357.915314,240.934769 363.366638,256.636536 368.907654,272.698456 
	C369.058380,273.038086 368.993164,273.004974 368.503479,272.991638 
	C347.065643,272.986603 326.117523,272.994965 305.169373,273.003326 
z"/>
<path fill="#FEA920" opacity="1.000000" stroke="none" 
	d="
M353.109436,200.462830 
	C352.992004,200.642975 352.660828,200.660400 351.835266,200.605438 
	C351.859161,200.455414 352.377380,200.377777 353.109436,200.462830 
z"/>
<path fill="#FEA920" opacity="1.000000" stroke="none" 
	d="
M162.412079,200.386841 
	C162.321808,200.575409 161.991592,200.625595 161.162918,200.652878 
	C161.167007,200.502808 161.669571,200.375641 162.412079,200.386841 
z"/>
<path fill="#FE9A01" opacity="1.000000" stroke="none" 
	d="
M145.040497,273.389771 
	C166.017853,272.968414 186.972198,272.983673 208.378448,273.001099 
	C208.830368,273.003326 208.990921,273.015106 209.026245,273.449554 
	C209.284302,276.192169 209.128143,278.617859 209.800949,280.786407 
	C211.811172,287.265625 214.146164,293.644135 216.354340,300.061951 
	C211.344009,304.814636 206.333679,309.567322 201.143982,314.602356 
	C195.841965,316.639648 190.719299,318.394592 185.271179,320.292206 
	C179.959320,320.438873 174.972931,320.442902 169.196777,320.299225 
	C163.284912,318.387665 158.162796,316.623779 152.836548,314.598022 
	C147.716354,309.644135 142.800293,304.952148 137.884216,300.260162 
	C138.488510,298.410736 139.188873,296.586426 139.679962,294.707397 
	C141.496552,287.756836 143.244019,280.788208 145.040497,273.389771 
z"/>
<path fill="#0182D1" opacity="1.000000" stroke="none" 
	d="
M153.040695,314.859894 
	C158.162796,316.623779 163.284912,318.387665 168.731674,320.294678 
	C169.037811,338.574005 169.037155,356.710236 168.994400,374.846375 
	C168.966568,386.652161 162.600082,392.973206 150.723206,392.994537 
	C136.080933,393.020813 121.438492,393.033905 106.796303,392.989807 
	C95.625656,392.956146 89.040565,386.443359 89.012802,375.360870 
	C88.967789,357.390900 89.007835,339.420685 89.030785,320.943970 
	C94.081955,320.427917 99.114311,320.418549 104.582779,320.913727 
	C105.018883,339.841919 105.018883,358.265564 105.018883,376.642609 
	C121.344147,376.642609 137.061691,376.642609 153.040695,376.642609 
	C153.040695,355.810577 153.040695,335.335236 153.040695,314.859894 
z"/>
<path fill="#FE9A01" opacity="1.000000" stroke="none" 
	d="
M305.088989,273.009277 
	C326.117523,272.994965 347.065643,272.986603 368.476868,272.966553 
	C368.562164,282.553375 372.674744,290.931915 376.056885,300.203857 
	C370.963776,305.577789 365.961945,310.231964 360.599670,314.947510 
	C355.140991,316.817413 350.042725,318.625946 344.944427,320.434509 
	C339.959808,320.439362 334.975220,320.444214 329.522827,320.443634 
	C323.956665,318.625458 318.858307,316.812683 313.400635,314.930908 
	C308.002838,310.141083 302.964355,305.420288 297.855225,300.005127 
	C298.483551,297.654205 299.414612,296.055054 299.841003,294.331085 
	C301.593353,287.246002 303.192169,280.122925 304.847473,273.013824 
	C304.847473,273.013824 305.008636,273.015259 305.088989,273.009277 
z"/>
<path fill="#0182D1" opacity="1.000000" stroke="none" 
	d="
M344.966187,320.941284 
	C350.042725,318.625946 355.140991,316.817413 360.616180,315.423370 
	C360.993073,336.105743 360.993073,356.373596 360.993073,376.660522 
	C377.301025,376.660522 393.021484,376.660522 408.902313,376.660522 
	C408.902313,357.679047 408.902313,339.036377 408.902313,320.393677 
	C413.938202,320.416382 418.974091,320.439087 424.477173,320.461853 
	C424.962738,338.928986 425.042969,357.396271 424.975494,375.863037 
	C424.937134,386.356873 418.271759,392.931030 407.705872,392.981415 
	C392.566284,393.053619 377.425812,393.054565 362.286255,392.981201 
	C351.602325,392.929413 345.041382,386.209351 345.011810,375.352783 
	C344.962830,357.384644 344.991791,339.416290 344.966187,320.941284 
z"/>
<path fill="#F4F4F4" opacity="1.000000" stroke="none" 
	d="
M408.574890,320.280090 
	C408.902313,339.036377 408.902313,357.679047 408.902313,376.660522 
	C393.021484,376.660522 377.301025,376.660522 360.993073,376.660522 
	C360.993073,356.373596 360.993073,336.105743 360.976562,315.362030 
	C365.961945,310.231964 370.963776,305.577789 376.039429,300.601013 
	C377.315430,301.272980 378.697479,302.114929 379.691162,303.286316 
	C387.270782,312.221313 396.653625,318.049591 408.574890,320.280090 
z"/>
<path fill="#F4F4F4" opacity="1.000000" stroke="none" 
	d="
M152.836548,314.598022 
	C153.040695,335.335236 153.040695,355.810577 153.040695,376.642609 
	C137.061691,376.642609 121.344147,376.642609 105.018883,376.642609 
	C105.018883,358.265564 105.018883,339.841919 105.057983,320.910645 
	C117.198151,318.153259 127.083344,312.204987 134.824219,302.645294 
	C135.526520,301.777954 136.419189,301.064758 137.553833,300.270081 
	C142.800293,304.952148 147.716354,309.644135 152.836548,314.598022 
z"/>
<path fill="#C06101" opacity="1.000000" stroke="none" 
	d="
M304.392822,273.010559 
	C303.192169,280.122925 301.593353,287.246002 299.841003,294.331085 
	C299.414612,296.055054 298.483551,297.654205 297.719086,299.683014 
	C296.792297,300.756836 295.783478,301.336914 295.091064,302.177612 
	C274.108124,327.653503 239.139481,327.346344 218.382080,301.488770 
	C217.990524,301.001007 217.439240,300.641418 216.658417,300.141998 
	C214.146164,293.644135 211.811172,287.265625 209.800949,280.786407 
	C209.128143,278.617859 209.284302,276.192169 209.106720,273.448730 
	C240.747314,273.011414 272.342743,273.009369 304.392822,273.010559 
z"/>
<path fill="#E67500" opacity="1.000000" stroke="none" 
	d="
M234.000000,137.000000 
	C283.134033,137.000000 331.768097,136.999588 380.402130,137.001709 
	C382.067444,137.001785 383.743286,136.911972 385.396057,137.062927 
	C389.916992,137.475800 392.880890,140.579178 392.961792,144.842926 
	C393.046356,149.299652 389.970917,152.543030 385.208099,152.954697 
	C384.050140,153.054794 382.877808,152.998550 381.712097,152.998581 
	C314.590454,153.000076 247.468796,153.000092 180.347153,152.998764 
	C179.181396,152.998734 178.009552,153.054428 176.850922,152.958664 
	C172.062286,152.562881 168.984619,149.365585 169.038040,144.904922 
	C169.091415,140.449188 172.190140,137.182571 177.039001,137.065720 
	C184.696182,136.881195 192.360840,137.002838 200.022324,137.000778 
	C211.181549,136.997772 222.340775,137.000000 234.000000,137.000000 
z"/>
<path fill="#E67500" opacity="1.000000" stroke="none" 
	d="
M121.037292,145.003036 
	C121.676414,139.428970 124.750275,137.038208 129.824951,137.011307 
	C134.819183,136.984818 139.818253,136.879181 144.806778,137.051773 
	C149.878265,137.227203 153.101990,140.615204 152.962631,145.244156 
	C152.829529,149.665100 149.694748,152.780502 144.814392,152.947296 
	C139.825714,153.117813 134.826752,153.015656 129.832535,152.988297 
	C124.762436,152.960510 121.678993,150.579254 121.037292,145.003036 
z"/>
</svg>